<svg width="24" height="24" viewBox="0 0 24 24" fill="none" xmlns="http://www.w3.org/2000/svg">
<path fill-rule="evenodd" clip-rule="evenodd" d="M16.2426 7.75736C16.6332 8.14788 16.6332 8.78104 16.2426 9.17157L13.4142 12L16.2426 14.8284C16.6332 15.2189 16.6332 15.8521 16.2426 16.2426C15.8521 16.6332 15.219 16.6332 14.8284 16.2426L12 13.4142L9.17157 16.2426C8.78105 16.6332 8.14788 16.6332 7.75736 16.2426C7.36684 15.8521 7.36684 15.2189 7.75736 14.8284L10.5858 12L7.75736 9.17157C7.36684 8.78105 7.36684 8.14788 7.75736 7.75736C8.14788 7.36683 8.78105 7.36683 9.17157 7.75736L12 10.5858L14.8284 7.75736C15.219 7.36683 15.8521 7.36683 16.2426 7.75736Z" fill="white"/>
</svg>
