<svg width="18" height="22" viewBox="0 0 18 22" fill="none" xmlns="http://www.w3.org/2000/svg">
<path d="M1.5 12C3 8.74996 9.5 5.99998 10.5 7.99998M10.5 7.99998C11.5 9.99999 6.79999 17.6 3.5 20.5H5.5M10.5 7.99998C11 9.74998 15.5 11 17 10M8.00004 7.5C5 13 7.25023 12.8436 9.00008 13.5C10.7499 14.1564 12.5 16.5 12.5 20.5H14.5M12 2.99996C12 4.10453 11.1045 4.99998 9.99996 5C8.89539 5.00002 7.99998 4.10461 8 3.00004C8.00002 1.89547 8.89547 1.00002 10 1C11.1046 0.999977 12 1.89539 12 2.99996Z" stroke="#26272B" stroke-width="1.5" stroke-linecap="round" stroke-linejoin="round"/>
</svg>
